<?xml version="1.0" standalone="no"?>
<!DOCTYPE svg PUBLIC "-//W3C//DTD SVG 20010904//EN"
 "http://www.w3.org/TR/2001/REC-SVG-20010904/DTD/svg10.dtd">
<svg version="1.0" xmlns="http://www.w3.org/2000/svg"
 width="512.000000pt" height="512.000000pt" viewBox="0 0 512.000000 512.000000"
 preserveAspectRatio="xMidYMid meet">
<metadata>
Created by potrace 1.11, written by Peter Selinger 2001-2013
</metadata>
<g transform="translate(0.000000,512.000000) scale(0.100000,-0.100000)"
fill="#000000" stroke="none">
<path d="M2555 5098 c-5 -14 -45 -173 -50 -198 -11 -53 -113 -385 -134 -435
-5 -11 -32 -78 -61 -150 -130 -320 -257 -525 -580 -935 -540 -688 -734 -997
-824 -1315 -25 -91 -31 -121 -46 -230 -8 -64 -5 -293 4 -360 14 -94 18 -114
37 -193 107 -451 447 -871 893 -1103 141 -73 330 -135 471 -155 11 -2 45 -6
75 -11 69 -9 355 -10 435 -1 303 36 600 161 843 355 134 107 302 292 394 433
108 167 194 385 227 575 21 124 23 143 26 270 7 301 -69 566 -248 865 -53 88
-189 291 -264 395 -90 124 -119 163 -145 196 -14 19 -81 104 -147 189 -67 85
-127 162 -134 170 -28 34 -185 247 -203 275 -10 17 -21 32 -25 35 -3 3 -40 61
-81 130 -122 202 -217 411 -302 660 -38 113 -98 313 -111 370 -2 8 -11 44 -20
79 -9 36 -17 73 -18 83 -1 21 -6 23 -12 6z m-892 -2982 c42 -18 70 -44 89 -81
15 -29 20 -57 33 -170 4 -27 8 -57 10 -65 3 -8 7 -33 10 -55 11 -75 67 -250
111 -343 88 -188 226 -349 392 -459 98 -64 128 -94 141 -140 34 -119 -61 -234
-182 -220 -53 7 -109 38 -226 125 -182 137 -334 323 -433 532 -73 154 -145
402 -163 565 -3 28 -8 63 -11 79 -12 70 -6 115 19 159 43 73 135 105 210 73z"/>
</g>
</svg>
