<?xml version="1.0" standalone="no"?>
<!DOCTYPE svg PUBLIC "-//W3C//DTD SVG 20010904//EN"
 "http://www.w3.org/TR/2001/REC-SVG-20010904/DTD/svg10.dtd">
<svg version="1.0" xmlns="http://www.w3.org/2000/svg"
 width="512.000000pt" height="512.000000pt" viewBox="0 0 512.000000 512.000000"
 preserveAspectRatio="xMidYMid meet">
<metadata>
Created by potrace 1.11, written by Peter Selinger 2001-2013
</metadata>
<g transform="translate(0.000000,512.000000) scale(0.100000,-0.100000)"
fill="#000000" stroke="none">
<path d="M2542 5051 c-35 -166 -140 -508 -214 -695 -134 -339 -261 -544 -627
-1014 -576 -739 -755 -1044 -828 -1409 -25 -127 -23 -389 5 -543 80 -443 351
-846 752 -1115 414 -278 966 -351 1460 -193 423 135 805 468 1011 877 161 323
209 731 124 1066 -82 325 -265 624 -814 1330 -237 304 -330 435 -426 598 -150
257 -277 585 -385 1001 -22 82 -41 150 -43 152 -2 2 -9 -23 -15 -55z m-861
-2944 c57 -30 86 -82 94 -167 10 -104 53 -307 85 -402 85 -253 242 -459 459
-603 53 -34 104 -76 113 -92 76 -130 -36 -287 -184 -259 -19 3 -72 31 -118 62
-388 258 -606 625 -685 1151 -22 148 -20 198 10 248 28 49 90 85 146 85 20 0
56 -10 80 -23z"/>
</g>
</svg>
